<svg fill="#FFFFFF" xmlns="http://www.w3.org/2000/svg"  viewBox="0 0 50 50" width="200px" height="200px"><path d="M 5 7 C 2.25 7 0 9.25 0 12 L 0 38 C 0 40.75 2.25 43 5 43 L 45 43 C 47.75 43 50 40.75 50 38 L 50 12 C 50 9.25 47.75 7 45 7 Z M 5 9 L 45 9 C 46.667969 9 48 10.332031 48 12 L 48 38 C 48 39.667969 46.667969 41 45 41 L 5 41 C 3.332031 41 2 39.667969 2 38 L 2 12 C 2 10.332031 3.332031 9 5 9 Z M 8.5625 19.90625 L 4.84375 28.40625 L 7.0625 28.40625 L 7.875 26.5 L 12.0625 26.5 L 12.875 28.40625 L 17.09375 28.40625 L 17.09375 22.09375 L 19.90625 28.40625 L 21.8125 28.40625 L 24.65625 22.1875 L 24.65625 28.40625 L 26.75 28.40625 L 26.75 19.90625 L 23.40625 19.90625 L 20.84375 25.625 L 18.28125 19.90625 L 15 19.90625 L 15 28.09375 L 11.34375 19.90625 Z M 29.5 19.90625 L 29.5 28.4375 L 37.5 28.4375 L 40 25.59375 L 42.46875 28.4375 L 45.125 28.4375 L 41.375 24.0625 L 45.125 19.90625 L 42.46875 19.90625 L 40.0625 22.5625 L 37.75 19.90625 Z M 9.90625 21.6875 L 11.21875 24.6875 L 8.65625 24.6875 Z M 31.5625 21.71875 L 36.65625 21.75 L 38.6875 24.0625 L 36.40625 26.625 L 31.5625 26.625 L 31.5625 24.9375 L 36.1875 24.9375 L 36.1875 23.3125 L 31.5625 23.3125 Z"/></svg>