<svg fill="#FFFFFF" xmlns="http://www.w3.org/2000/svg"  viewBox="0 0 48 48" width="200px" height="200px"><path d="M 8.5 9 C 4.916 9 2 11.916 2 15.5 L 2 32.5 C 2 36.084 4.916 39 8.5 39 L 39.5 39 C 43.084 39 46 36.084 46 32.5 L 46 15.5 C 46 11.916 43.084 9 39.5 9 L 8.5 9 z M 22 15 L 26 15 C 30.97 15 35 19.03 35 24 C 35 28.97 30.97 33 26 33 L 22 33 C 17.04 33 13 28.96 13 24 C 13 19.04 17.04 15 22 15 z M 22 17 C 18.14 17 15 20.14 15 24 C 15 27.86 18.14 31 22 31 C 25.86 31 29 27.86 29 24 C 29 20.14 25.86 17 22 17 z M 20.5 20.300781 L 20.5 27.699219 C 19.03 27.109219 18 25.67 18 24 C 18 22.33 19.03 20.890781 20.5 20.300781 z M 23.5 20.300781 C 24.97 20.890781 26 22.33 26 24 C 26 25.67 24.97 27.109219 23.5 27.699219 L 23.5 20.300781 z"/></svg>