<svg version="1.1" id="Layer_1" xmlns="http://www.w3.org/2000/svg" xmlns:xlink="http://www.w3.org/1999/xlink" x="0px" y="0px"
	 width="100%" viewBox="0 0 184 184" enableBackground="new 0 0 184 184" xml:space="preserve">
<path opacity="0" stroke="none" 
	d="
M1.000000,64.000000 
	C1.000000,42.666676 1.000000,21.833351 1.000000,1.000020 
	C62.333298,1.000013 123.666595,1.000013 184.999908,1.000007 
	C184.999939,62.333271 184.999939,123.666542 184.999969,184.999863 
	C123.666756,184.999908 62.333504,184.999908 1.000128,184.999954 
	C1.000000,144.833328 1.000000,104.666664 1.000000,64.000000 
M139.673080,85.690880 
	C139.062622,84.662537 138.452179,83.634193 137.841721,82.605850 
	C138.587219,82.464981 139.704529,81.938400 140.020569,82.243050 
	C143.103027,85.214439 146.055206,83.110580 149.226639,82.463264 
	C152.542725,81.786415 156.095062,82.315681 159.445236,81.741081 
	C161.927063,81.315399 165.441940,80.661255 166.456924,78.919960 
	C174.857880,64.507500 179.940216,49.659981 169.189392,33.984852 
	C168.818466,33.444035 168.664352,32.759624 168.338608,32.181942 
	C160.663284,18.569933 152.525284,14.041489 138.010849,16.588642 
	C133.032272,17.462341 129.786133,16.388153 126.870293,12.740560 
	C123.495255,8.518540 119.453003,6.316297 113.836151,8.043900 
	C103.833900,11.120349 93.818329,11.096615 83.812904,7.865296 
	C82.991196,7.599920 81.777145,7.974526 80.941261,8.419604 
	C74.715546,11.734566 68.312401,14.791918 62.407795,18.614218 
	C55.762669,22.915888 49.831112,28.329666 43.142551,32.552269 
	C31.410109,39.959164 22.431225,49.630310 16.830481,62.298103 
	C10.834160,75.860611 9.739608,90.092010 10.951102,104.759956 
	C13.294765,133.135406 25.668221,156.726273 44.844456,177.091568 
	C46.799679,179.168045 50.393597,181.085388 53.062389,180.884827 
	C72.571167,179.418793 92.046104,177.569199 111.087845,172.589478 
	C127.206154,168.374268 141.593918,160.995224 154.332153,150.315613 
	C159.477036,146.002213 159.041092,141.471298 153.158051,138.110001 
	C152.293076,137.615799 151.425064,137.126877 150.560791,136.631470 
	C141.709808,131.558060 141.581070,129.981216 143.338608,119.861588 
	C144.218430,114.795830 142.927521,109.224106 141.908173,104.020340 
	C141.494873,101.910416 141.073441,100.584892 142.037445,98.306572 
	C143.736526,94.291039 143.841034,89.812241 139.673080,85.690880 
z"/>
<path fill="#ECF4E5" opacity="1.000000" stroke="none" 
	d="
M139.940430,85.978012 
	C143.841034,89.812241 143.736526,94.291039 142.037445,98.306572 
	C141.073441,100.584892 141.494873,101.910416 141.908173,104.020340 
	C142.927521,109.224106 144.218430,114.795830 143.338608,119.861588 
	C141.581070,129.981216 141.709808,131.558060 150.560791,136.631470 
	C151.425064,137.126877 152.293076,137.615799 153.158051,138.110001 
	C159.041092,141.471298 159.477036,146.002213 154.332153,150.315613 
	C141.593918,160.995224 127.206154,168.374268 111.087845,172.589478 
	C92.046104,177.569199 72.571167,179.418793 53.062389,180.884827 
	C50.393597,181.085388 46.799679,179.168045 44.844456,177.091568 
	C25.668221,156.726273 13.294765,133.135406 10.951102,104.759956 
	C9.739608,90.092010 10.834160,75.860611 16.830481,62.298103 
	C22.431225,49.630310 31.410109,39.959164 43.142551,32.552269 
	C49.831112,28.329666 55.762669,22.915888 62.407795,18.614218 
	C68.312401,14.791918 74.715546,11.734566 80.941261,8.419604 
	C81.777145,7.974526 82.991196,7.599920 83.812904,7.865296 
	C93.818329,11.096615 103.833900,11.120349 113.836151,8.043900 
	C119.453003,6.316297 123.495255,8.518540 126.870293,12.740560 
	C129.786133,16.388153 133.032272,17.462341 138.010849,16.588642 
	C152.525284,14.041489 160.663284,18.569933 168.338608,32.181942 
	C168.664352,32.759624 168.818466,33.444035 169.189392,33.984852 
	C179.940216,49.659981 174.857880,64.507500 166.456924,78.919960 
	C165.441940,80.661255 161.927063,81.315399 159.445236,81.741081 
	C156.095062,82.315681 152.542725,81.786415 149.226639,82.463264 
	C146.055206,83.110580 143.103027,85.214439 140.020569,82.243050 
	C139.704529,81.938400 138.587219,82.464981 137.841721,82.605850 
	C138.452179,83.634193 139.062622,84.662537 139.940430,85.978012 
M144.473221,21.754004 
	C140.505661,22.215981 136.486053,22.423952 132.587463,23.222620 
	C129.622055,23.830118 127.738945,23.429361 126.053841,20.656061 
	C122.235764,14.372390 116.705559,11.790950 109.587982,14.764007 
	C103.257446,17.408310 97.022400,16.992933 90.656380,15.195132 
	C85.999985,13.880139 81.571465,13.490178 78.262825,18.196680 
	C77.698708,18.999132 76.198685,19.097797 75.201614,19.649237 
	C69.016075,23.070232 62.760620,26.378580 56.713974,30.031538 
	C53.338665,32.070660 50.482002,34.965370 47.115112,37.021824 
	C32.313164,46.062656 22.025713,58.688271 18.711027,75.748657 
	C11.367489,113.545197 23.404718,145.582748 49.415955,172.988174 
	C50.477135,174.106232 52.647896,174.784790 54.243065,174.689255 
	C74.217270,173.492950 94.052513,171.206451 113.362251,165.689545 
	C127.630501,161.612991 140.401276,154.746094 151.469437,144.657089 
	C146.748032,141.284134 142.236496,138.186569 137.875046,134.890366 
	C135.811768,133.331039 134.893143,131.556732 135.855728,128.463837 
	C137.202072,124.137863 137.596756,119.473671 138.037704,114.919250 
	C138.521942,109.917603 136.480865,105.819710 133.042725,102.161644 
	C132.393509,101.470909 132.867172,98.430740 133.756699,97.807297 
	C138.085449,94.773453 138.338287,91.575218 133.699066,88.805702 
	C131.328323,87.390427 128.489441,86.741035 125.834534,85.825539 
	C123.420059,84.992950 120.968231,84.268707 117.416344,83.142761 
	C120.293556,78.991234 122.515907,75.784607 125.061516,72.111549 
	C126.585579,74.086800 127.324402,75.044350 128.072403,76.013794 
	C130.113251,74.896088 131.830719,73.955475 133.680481,72.942413 
	C134.030106,74.279823 134.303802,75.326767 134.715118,76.900169 
	C137.529770,75.337395 140.050095,73.938049 142.670319,72.483223 
	C143.247406,74.257469 143.757050,75.824356 144.554062,78.274734 
	C147.113998,75.597679 149.277145,73.335556 151.529495,70.980171 
	C152.261185,72.712982 152.859543,74.130013 153.650467,76.003113 
	C155.483475,73.655022 156.961975,71.761047 158.617340,69.640503 
	C159.623352,71.814705 160.470612,73.645821 161.534576,75.945290 
	C167.379913,67.288971 170.132736,57.866829 168.880127,48.652916 
	C167.603516,39.262417 161.800812,31.047115 154.293991,24.846315 
	C152.004883,22.955439 148.392944,22.665966 144.473221,21.754004 
z"/>
<path fill="#1F3718" opacity="1.000000" stroke="none" 
	d="
M144.930023,21.698544 
	C148.392944,22.665966 152.004883,22.955439 154.293991,24.846315 
	C161.800812,31.047115 167.603516,39.262417 168.880127,48.652916 
	C170.132736,57.866829 167.379913,67.288971 161.534576,75.945290 
	C160.470612,73.645821 159.623352,71.814705 158.617340,69.640503 
	C156.961975,71.761047 155.483475,73.655022 153.650467,76.003113 
	C152.859543,74.130013 152.261185,72.712982 151.529495,70.980171 
	C149.277145,73.335556 147.113998,75.597679 144.554062,78.274734 
	C143.757050,75.824356 143.247406,74.257469 142.670319,72.483223 
	C140.050095,73.938049 137.529770,75.337395 134.715118,76.900169 
	C134.303802,75.326767 134.030106,74.279823 133.680481,72.942413 
	C131.830719,73.955475 130.113251,74.896088 128.072403,76.013794 
	C127.324402,75.044350 126.585579,74.086800 125.061516,72.111549 
	C122.515907,75.784607 120.293556,78.991234 117.416344,83.142761 
	C120.968231,84.268707 123.420059,84.992950 125.834534,85.825539 
	C128.489441,86.741035 131.328323,87.390427 133.699066,88.805702 
	C138.338287,91.575218 138.085449,94.773453 133.756699,97.807297 
	C132.867172,98.430740 132.393509,101.470909 133.042725,102.161644 
	C136.480865,105.819710 138.521942,109.917603 138.037704,114.919250 
	C137.596756,119.473671 137.202072,124.137863 135.855728,128.463837 
	C134.893143,131.556732 135.811768,133.331039 137.875046,134.890366 
	C142.236496,138.186569 146.748032,141.284134 151.469437,144.657089 
	C140.401276,154.746094 127.630501,161.612991 113.362251,165.689545 
	C94.052513,171.206451 74.217270,173.492950 54.243065,174.689255 
	C52.647896,174.784790 50.477135,174.106232 49.415955,172.988174 
	C23.404718,145.582748 11.367489,113.545197 18.711027,75.748657 
	C22.025713,58.688271 32.313164,46.062656 47.115112,37.021824 
	C50.482002,34.965370 53.338665,32.070660 56.713974,30.031538 
	C62.760620,26.378580 69.016075,23.070232 75.201614,19.649237 
	C76.198685,19.097797 77.698708,18.999132 78.262825,18.196680 
	C81.571465,13.490178 85.999985,13.880139 90.656380,15.195132 
	C97.022400,16.992933 103.257446,17.408310 109.587982,14.764007 
	C116.705559,11.790950 122.235764,14.372390 126.053841,20.656061 
	C127.738945,23.429361 129.622055,23.830118 132.587463,23.222620 
	C136.486053,22.423952 140.505661,22.215981 144.930023,21.698544 
M117.985809,131.104675 
	C117.985809,131.104675 117.917038,131.100922 118.368973,131.604630 
	C119.250908,131.709717 120.132835,131.814789 121.786728,132.048035 
	C125.165390,131.869476 128.108658,131.019455 129.497040,127.318726 
	C114.628403,124.786896 110.958603,122.430046 103.403595,109.514801 
	C99.377228,102.631752 95.978889,95.384483 92.116516,88.401474 
	C88.220352,81.357376 84.200775,74.308670 74.496490,74.617546 
	C77.874557,64.290878 86.726166,59.119576 97.389397,61.301132 
	C109.397156,63.757767 121.437241,64.400986 132.375336,58.030006 
	C141.571625,52.673538 150.335022,46.736206 161.860046,46.742870 
	C159.266434,38.988422 154.517456,33.485004 149.323578,28.310030 
	C148.694427,27.683167 147.546341,27.147377 146.704346,27.230879 
	C138.933716,28.001514 131.176575,28.909672 123.420456,29.820004 
	C123.095116,29.858187 122.818459,30.311132 122.442909,30.636982 
	C123.821899,31.546295 124.947586,32.288574 126.220680,33.128052 
	C110.343018,43.626709 91.439514,48.931557 79.136665,46.144226 
	C82.642509,44.763336 85.619652,43.590694 88.890114,42.302521 
	C87.023689,38.898590 85.356659,35.858311 83.463112,32.404911 
	C86.235420,28.985352 89.955452,26.738644 95.079285,29.049871 
	C98.847763,30.749739 102.887810,32.195915 106.110245,34.664463 
	C109.654739,37.379715 111.893784,36.958778 114.451195,33.261181 
	C107.076439,26.300480 97.822144,23.951305 88.295868,22.267570 
	C87.744431,22.170107 86.938484,22.526031 86.499321,22.936600 
	C83.098412,26.116064 79.592148,29.214306 76.525772,32.696346 
	C75.824280,33.492924 76.397911,35.808167 76.963898,37.186649 
	C77.344147,38.112774 78.744118,38.620205 80.712112,40.068996 
	C71.522446,39.517948 70.453773,37.835407 71.619057,27.541973 
	C62.652672,30.864296 57.521015,38.135357 51.574398,44.703453 
	C51.241966,43.509399 50.987537,42.595535 50.606525,41.226990 
	C29.429840,57.699017 21.506243,79.147362 24.406113,105.559059 
	C24.440516,105.896919 24.591391,106.170662 24.775446,107.030861 
	C24.881721,107.675262 24.987999,108.319656 24.996845,109.738960 
	C25.373102,111.475075 25.749357,113.211197 26.102533,115.678734 
	C26.713743,117.251953 27.324953,118.825180 27.842777,121.148857 
	C28.949327,124.821304 30.055880,128.493744 31.545109,133.436234 
	C31.545109,124.043961 31.545109,116.110481 31.545109,107.976936 
	C34.425385,112.330315 37.162254,116.466949 39.899128,120.603592 
	C40.321766,120.457710 40.744404,120.311829 41.167042,120.165955 
	C39.993797,103.270599 41.126415,86.709846 48.161171,70.377731 
	C49.462807,68.405411 50.764446,66.433090 51.824986,64.826088 
	C54.847980,74.325752 57.777126,83.530495 60.616570,92.453362 
	C72.506638,91.762413 82.125015,93.868202 89.451988,102.640625 
	C93.370728,107.332458 97.773582,111.619965 102.098289,116.517426 
	C102.250214,116.794403 102.475739,116.983704 102.980858,117.595024 
	C103.281105,117.786865 103.581352,117.978706 103.843292,118.081810 
	C103.843292,118.081810 103.807198,118.171471 103.945526,118.813416 
	C105.092827,120.003807 106.240128,121.194199 107.469376,122.441643 
	C107.469376,122.441643 107.549904,122.500648 107.608932,123.153328 
	C110.082909,125.414162 112.556885,127.674995 115.398750,130.362015 
	C115.931396,130.511139 116.464035,130.660248 117.414398,131.086670 
	C117.581078,131.098831 117.747765,131.111008 117.985809,131.104675 
M51.983856,88.257477 
	C51.529953,87.959312 51.076054,87.661148 50.622154,87.362984 
	C50.448074,88.249603 50.273991,89.136223 49.867455,90.806602 
	C46.839462,105.231880 47.937450,119.612488 51.300468,135.423752 
	C46.220310,132.089767 42.463165,129.624039 38.706020,127.158310 
	C38.332603,127.316284 37.959190,127.474258 37.585773,127.632233 
	C38.695690,132.164627 39.558167,136.775650 40.967979,141.212769 
	C43.743938,149.949524 47.110695,158.414383 54.978725,164.060318 
	C54.978725,164.060318 54.881294,164.080597 55.176281,164.656311 
	C56.088970,165.206848 57.001659,165.757385 58.430489,166.841171 
	C59.753777,167.309845 61.077068,167.778519 62.829334,168.399124 
	C63.668091,158.293579 64.454330,148.820770 65.708290,138.786652 
	C68.477234,133.209641 71.246170,127.632629 73.624374,122.842621 
	C66.671005,112.498772 59.766357,102.227409 52.778484,91.359688 
	C52.640629,90.984032 52.502769,90.608368 52.519768,89.765579 
	C52.484871,89.421074 52.332081,89.140846 51.983856,88.257477 
M108.366310,87.555054 
	C112.948006,91.437752 118.225502,92.692612 124.736565,91.834137 
	C125.170799,91.815338 125.605042,91.796539 126.502693,92.352882 
	C128.586334,92.945541 130.669983,93.538200 132.753632,94.130867 
	C132.969467,93.655319 133.185303,93.179779 133.401138,92.704239 
	C131.902664,91.843285 130.404190,90.982338 128.188583,89.870255 
	C121.021225,88.592857 114.638138,85.857956 109.660599,79.464539 
	C108.473503,78.291733 107.286400,77.118927 105.775597,75.327637 
	C102.680939,72.072166 99.078415,70.341194 93.541275,71.435150 
	C95.638092,73.709038 97.253914,75.461296 99.224564,77.775383 
	C102.188744,80.774879 105.152931,83.774376 108.045532,86.844200 
	C108.045532,86.844200 108.122948,86.908035 108.366310,87.555054 
M89.675255,163.989166 
	C89.627777,162.905380 89.808685,161.748291 89.488968,160.751862 
	C88.612968,158.021729 87.526421,155.359161 86.186577,151.767365 
	C88.454193,152.501373 89.536118,152.851593 91.060387,153.344986 
	C89.229401,143.656250 86.199112,135.376144 78.907043,128.597961 
	C78.069260,130.077072 77.526909,131.034576 76.587036,132.572952 
	C70.857903,143.184982 68.237556,154.428040 69.356911,166.834167 
	C76.363312,167.426315 82.828026,166.782990 89.675255,163.989166 
M153.345886,51.568611 
	C149.652542,53.025589 145.616928,53.946114 142.331512,56.042419 
	C133.296799,61.807152 124.178680,67.037880 112.338585,66.640045 
	C113.346855,68.617569 113.955978,69.812256 114.606621,71.088356 
	C116.051956,70.200905 117.141098,69.532166 118.158066,68.907730 
	C119.250252,70.153946 120.165581,71.198372 121.134361,72.303787 
	C123.414757,70.549034 125.382988,69.034500 127.365311,67.509117 
	C128.193863,68.293999 128.964828,69.024345 129.817734,69.832306 
	C131.956543,67.924377 133.908401,66.183235 135.982513,64.333038 
	C136.877731,65.337097 137.642593,66.194946 138.706802,67.388527 
	C140.204086,65.041580 141.402344,63.163326 142.794876,60.980568 
	C143.974045,62.629822 144.962845,64.012840 146.347443,65.949417 
	C147.708267,62.737476 148.809326,60.138657 150.071533,57.159473 
	C151.626160,59.311508 152.850143,61.005836 154.293274,63.003517 
	C155.695023,60.409191 156.899109,58.180691 158.278610,55.627522 
	C159.321213,57.885044 160.117676,59.609646 160.914154,61.334248 
	C161.284637,61.287498 161.655121,61.240749 162.025604,61.194000 
	C162.197128,57.823158 162.368668,54.452316 162.567627,50.542389 
	C159.073395,50.869606 156.619171,51.099430 153.345886,51.568611 
M108.593674,97.858612 
	C107.466064,97.858612 106.338455,97.858612 105.012794,97.858612 
	C105.278557,96.456360 105.520126,95.181755 105.807762,93.664070 
	C103.517708,93.902031 101.744408,94.086304 99.384789,94.331497 
	C103.646492,106.550186 109.323715,117.175560 121.441154,122.757011 
	C128.721756,126.110542 131.305511,124.654732 133.462311,116.478088 
	C131.431915,117.103294 129.489487,117.701408 127.402512,118.344032 
	C127.291275,116.126915 127.204498,114.397255 127.106285,112.439651 
	C124.770134,113.410324 122.789040,114.233482 120.411461,115.221375 
	C120.606743,112.698990 120.738617,110.995598 120.875557,109.226845 
	C118.632446,109.589607 116.816628,109.883263 114.860748,110.199570 
	C114.981369,107.787735 115.068550,106.044502 115.159615,104.223549 
	C113.244949,104.110649 111.672195,104.017914 110.724159,103.962006 
	C110.195923,101.591354 109.756851,99.620903 108.593674,97.858612 
M69.641472,101.245636 
	C69.385811,102.370468 68.539520,103.850258 68.968315,104.563744 
	C72.274910,110.065773 75.828506,115.419357 79.203880,120.661133 
	C84.243195,119.093285 88.435196,117.789055 93.234993,116.295731 
	C86.772484,108.797768 79.626709,103.510544 69.641472,101.245636 
M96.794914,35.908012 
	C95.427345,34.853073 94.059769,33.798134 92.692200,32.743195 
	C92.147141,33.167740 91.602089,33.592289 91.057030,34.016838 
	C92.416542,36.384628 93.221909,39.713997 95.266815,40.892483 
	C98.255981,42.615147 101.274033,40.614544 104.485809,37.974174 
	C101.468842,37.139790 99.521599,36.601250 96.794914,35.908012 
M117.927315,19.148012 
	C115.459694,19.488117 112.992081,19.828224 109.313095,20.335289 
	C110.748543,21.256149 111.237617,21.814520 111.540329,21.727152 
	C115.665413,20.536579 118.367111,21.955847 120.172112,25.831352 
	C120.504242,26.544456 122.262314,26.593439 123.362206,26.948963 
	C123.554085,26.572706 123.745956,26.196449 123.937836,25.820192 
	C122.162758,23.705969 120.387680,21.591745 117.927315,19.148012 
z"/>
<path fill="#85DC30" opacity="1.000000" stroke="none" 
	d="
M25.094273,108.964058 
	C24.987999,108.319656 24.881721,107.675262 24.825724,106.470581 
	C24.840117,105.591576 24.709536,105.318146 24.484259,105.090012 
	C21.506243,79.147362 29.429840,57.699017 50.606525,41.226990 
	C50.987537,42.595535 51.241966,43.509399 51.574398,44.703453 
	C57.521015,38.135357 62.652672,30.864296 71.619057,27.541973 
	C70.453773,37.835407 71.522446,39.517948 80.712112,40.068996 
	C78.744118,38.620205 77.344147,38.112774 76.963898,37.186649 
	C76.397911,35.808167 75.824280,33.492924 76.525772,32.696346 
	C79.592148,29.214306 83.098412,26.116064 86.499321,22.936600 
	C86.938484,22.526031 87.744431,22.170107 88.295868,22.267570 
	C97.822144,23.951305 107.076439,26.300480 114.451195,33.261181 
	C111.893784,36.958778 109.654739,37.379715 106.110245,34.664463 
	C102.887810,32.195915 98.847763,30.749739 95.079285,29.049871 
	C89.955452,26.738644 86.235420,28.985352 83.463112,32.404911 
	C85.356659,35.858311 87.023689,38.898590 88.890114,42.302521 
	C85.619652,43.590694 82.642509,44.763336 79.136665,46.144226 
	C91.439514,48.931557 110.343018,43.626709 126.220680,33.128052 
	C124.947586,32.288574 123.821899,31.546295 122.442909,30.636982 
	C122.818459,30.311132 123.095116,29.858187 123.420456,29.820004 
	C131.176575,28.909672 138.933716,28.001514 146.704346,27.230879 
	C147.546341,27.147377 148.694427,27.683167 149.323578,28.310030 
	C154.517456,33.485004 159.266434,38.988422 161.860046,46.742870 
	C150.335022,46.736206 141.571625,52.673538 132.375336,58.030006 
	C121.437241,64.400986 109.397156,63.757767 97.389397,61.301132 
	C86.726166,59.119576 77.874557,64.290878 74.497467,74.616302 
	C84.200775,74.308670 88.220352,81.357376 92.116516,88.401474 
	C95.978889,95.384483 99.377228,102.631752 103.403595,109.514801 
	C110.958603,122.430046 114.628403,124.786896 129.497040,127.318726 
	C128.108658,131.019455 125.165390,131.869476 121.166504,131.742432 
	C119.669868,131.324875 118.793449,131.212906 117.917038,131.100922 
	C117.917038,131.100922 117.985809,131.104675 117.918358,130.932983 
	C117.566162,130.777313 117.281425,130.793335 116.996681,130.809372 
	C116.464035,130.660248 115.931396,130.511139 115.153893,129.821350 
	C112.455986,127.020676 110.002945,124.760666 107.549904,122.500648 
	C107.549904,122.500648 107.469376,122.441643 107.598808,122.058624 
	C106.421227,120.507561 105.114212,119.339516 103.807198,118.171471 
	C103.807198,118.171471 103.843292,118.081810 103.777374,117.858887 
	C103.399261,117.452408 103.087067,117.268867 102.774864,117.085327 
	C102.475739,116.983704 102.250214,116.794403 102.048035,115.922997 
	C101.400063,113.806786 101.009560,112.158478 100.170372,110.784149 
	C95.384720,102.946663 90.434380,95.209625 85.660728,87.364990 
	C83.339394,83.550293 79.964928,82.353180 75.890503,83.253128 
	C69.504326,84.663704 68.560890,84.137299 69.073288,77.613899 
	C69.288322,74.876282 70.087624,72.019981 71.310898,69.560638 
	C73.805588,64.545204 76.767990,59.762413 79.559807,54.844875 
	C76.241211,50.515980 72.484329,46.285984 69.556732,41.543995 
	C67.811447,38.717060 66.459000,38.458549 64.171425,40.280235 
	C59.124676,44.299171 54.104935,48.352211 49.093273,52.414902 
	C47.940052,53.349758 46.904030,55.168045 45.745041,55.227196 
	C41.084488,55.465054 39.512814,59.058144 37.458763,62.129089 
	C28.363958,75.726471 24.529993,90.687759 25.983822,107.278763 
	C25.668856,108.030060 25.381563,108.497055 25.094273,108.964058 
M99.826096,56.247578 
	C103.806412,56.207600 107.787666,56.092960 111.766861,56.142746 
	C120.845032,56.256325 126.204506,51.261490 129.445175,43.369774 
	C131.113770,39.306404 129.960541,37.772072 125.515938,38.136993 
	C124.171837,38.247353 122.861656,38.770706 121.535934,39.104889 
	C122.048225,39.306339 122.560509,39.507793 123.072800,39.709248 
	C123.195534,41.199116 124.000809,43.406998 123.321304,44.052940 
	C120.569748,46.668594 117.665787,49.560543 114.248688,50.934864 
	C109.390526,52.888767 104.029968,53.591698 98.902794,54.902431 
	C98.846802,54.916748 99.042816,55.916840 99.826096,56.247578 
M151.448776,39.966141 
	C147.849396,37.765850 144.398895,35.224033 140.568298,33.554146 
	C139.261993,32.984684 135.830353,34.174641 135.408966,35.314507 
	C134.411835,38.011841 136.131104,40.171486 139.183212,40.360519 
	C143.142670,40.605736 147.121460,40.538315 151.448776,39.966141 
z"/>
<path fill="#73C220" opacity="1.000000" stroke="none" 
	d="
M26.011496,106.994461 
	C24.529993,90.687759 28.363958,75.726471 37.458763,62.129089 
	C39.512814,59.058144 41.084488,55.465054 45.745041,55.227196 
	C46.904030,55.168045 47.940052,53.349758 49.093273,52.414902 
	C54.104935,48.352211 59.124676,44.299171 64.171425,40.280235 
	C66.459000,38.458549 67.811447,38.717060 69.556732,41.543995 
	C72.484329,46.285984 76.241211,50.515980 79.559807,54.844875 
	C76.767990,59.762413 73.805588,64.545204 71.310898,69.560638 
	C70.087624,72.019981 69.288322,74.876282 69.073288,77.613899 
	C68.560890,84.137299 69.504326,84.663704 75.890503,83.253128 
	C79.964928,82.353180 83.339394,83.550293 85.660728,87.364990 
	C90.434380,95.209625 95.384720,102.946663 100.170372,110.784149 
	C101.009560,112.158478 101.400063,113.806786 101.977875,115.709259 
	C97.773582,111.619965 93.370728,107.332458 89.451988,102.640625 
	C82.125015,93.868202 72.506638,91.762413 60.616570,92.453362 
	C57.777126,83.530495 54.847980,74.325752 51.824986,64.826088 
	C50.764446,66.433090 49.462807,68.405411 47.644512,70.751984 
	C39.700157,81.095215 37.576736,92.903847 36.245255,105.702133 
	C33.308144,102.945168 31.255751,101.018654 28.791958,98.705978 
	C28.082907,102.059090 27.559660,104.533539 26.780172,107.005463 
	C26.353119,107.000107 26.182308,106.997284 26.011496,106.994461 
M61.263374,71.626198 
	C63.433132,65.237587 65.602890,58.848976 67.893173,52.105476 
	C60.492855,55.231384 57.341038,60.534508 58.600735,67.609451 
	C58.894768,69.260841 60.133541,70.744026 61.263374,71.626198 
z"/>
<path fill="#75C521" opacity="1.000000" stroke="none" 
	d="
M65.240570,139.347961 
	C64.454330,148.820770 63.668091,158.293579 62.829334,168.399124 
	C61.077068,167.778519 59.753777,167.309845 58.148418,166.199768 
	C56.871330,165.065765 55.876312,164.573181 54.881294,164.080597 
	C54.881294,164.080597 54.978725,164.060318 54.975327,163.715179 
	C53.642967,160.736145 52.187725,158.157303 51.010345,155.457291 
	C48.240864,149.106232 45.604050,142.697327 42.600891,135.569763 
	C47.989555,137.953125 51.999870,139.726852 56.868317,141.880112 
	C55.182060,133.821503 53.209332,127.451752 52.646053,120.959702 
	C51.870342,112.019310 52.159878,102.986488 52.261669,94.235962 
	C56.574802,102.135483 60.356834,109.948112 64.771385,117.385292 
	C67.079315,121.273468 68.618202,124.530479 66.656830,129.182831 
	C65.372665,132.228836 65.658127,135.936600 65.240570,139.347961 
z"/>
<path fill="#85DB31" opacity="1.000000" stroke="none" 
	d="
M51.993065,93.993263 
	C52.159878,102.986488 51.870342,112.019310 52.646053,120.959702 
	C53.209332,127.451752 55.182060,133.821503 56.868317,141.880112 
	C51.999870,139.726852 47.989555,137.953125 42.600891,135.569763 
	C45.604050,142.697327 48.240864,149.106232 51.010345,155.457291 
	C52.187725,158.157303 53.642967,160.736145 54.941467,163.751648 
	C47.110695,158.414383 43.743938,149.949524 40.967979,141.212769 
	C39.558167,136.775650 38.695690,132.164627 37.585773,127.632233 
	C37.959190,127.474258 38.332603,127.316284 38.706020,127.158310 
	C42.463165,129.624039 46.220310,132.089767 51.300468,135.423752 
	C47.937450,119.612488 46.839462,105.231880 50.270927,90.412796 
	C51.057259,90.035187 51.440121,90.051392 51.956150,90.116478 
	C52.089317,90.165359 52.364910,90.232712 52.364910,90.232712 
	C52.502769,90.608368 52.640629,90.984032 52.605591,91.851486 
	C52.286152,92.893280 52.139610,93.443268 51.993065,93.993263 
z"/>
<path fill="#EBEEEA" opacity="1.000000" stroke="none" 
	d="
M153.755402,51.448933 
	C156.619171,51.099430 159.073395,50.869606 162.567627,50.542389 
	C162.368668,54.452316 162.197128,57.823158 162.025604,61.194000 
	C161.655121,61.240749 161.284637,61.287498 160.914154,61.334248 
	C160.117676,59.609646 159.321213,57.885044 158.278610,55.627522 
	C156.899109,58.180691 155.695023,60.409191 154.293274,63.003517 
	C152.850143,61.005836 151.626160,59.311508 150.071533,57.159473 
	C148.809326,60.138657 147.708267,62.737476 146.347443,65.949417 
	C144.962845,64.012840 143.974045,62.629822 142.794876,60.980568 
	C141.402344,63.163326 140.204086,65.041580 138.706802,67.388527 
	C137.642593,66.194946 136.877731,65.337097 135.982513,64.333038 
	C133.908401,66.183235 131.956543,67.924377 129.817734,69.832306 
	C128.964828,69.024345 128.193863,68.293999 127.365311,67.509117 
	C125.382988,69.034500 123.414757,70.549034 121.134361,72.303787 
	C120.165581,71.198372 119.250252,70.153946 118.158066,68.907730 
	C117.141098,69.532166 116.051956,70.200905 114.606621,71.088356 
	C113.955978,69.812256 113.346855,68.617569 112.338585,66.640045 
	C124.178680,67.037880 133.296799,61.807152 142.331512,56.042419 
	C145.616928,53.946114 149.652542,53.025589 153.755402,51.448933 
z"/>
<path fill="#F0F2EF" opacity="1.000000" stroke="none" 
	d="
M108.955734,97.754532 
	C109.756851,99.620903 110.195923,101.591354 110.724159,103.962006 
	C111.672195,104.017914 113.244949,104.110649 115.159615,104.223549 
	C115.068550,106.044502 114.981369,107.787735 114.860748,110.199570 
	C116.816628,109.883263 118.632446,109.589607 120.875557,109.226845 
	C120.738617,110.995598 120.606743,112.698990 120.411461,115.221375 
	C122.789040,114.233482 124.770134,113.410324 127.106285,112.439651 
	C127.204498,114.397255 127.291275,116.126915 127.402512,118.344032 
	C129.489487,117.701408 131.431915,117.103294 133.462311,116.478088 
	C131.305511,124.654732 128.721756,126.110542 121.441154,122.757011 
	C109.323715,117.175560 103.646492,106.550186 99.384789,94.331497 
	C101.744408,94.086304 103.517708,93.902031 105.807762,93.664070 
	C105.520126,95.181755 105.278557,96.456360 105.012794,97.858612 
	C106.338455,97.858612 107.466064,97.858612 108.955734,97.754532 
z"/>
<path fill="#71BF1E" opacity="1.000000" stroke="none" 
	d="
M76.984558,131.992081 
	C77.526909,131.034576 78.069260,130.077072 78.907043,128.597961 
	C86.199112,135.376144 89.229401,143.656250 91.060387,153.344986 
	C89.536118,152.851593 88.454193,152.501373 86.186577,151.767365 
	C87.526421,155.359161 88.612968,158.021729 89.488968,160.751862 
	C89.808685,161.748291 89.627777,162.905380 89.121292,163.751785 
	C87.944359,163.327789 87.322739,163.136536 86.698212,162.955292 
	C78.628799,160.613327 75.285728,153.044907 77.455879,144.928558 
	C78.521454,140.943329 77.216637,136.324280 76.984558,131.992081 
z"/>
<path fill="#60A40F" opacity="1.000000" stroke="none" 
	d="
M27.036413,107.007980 
	C27.559660,104.533539 28.082907,102.059090 28.791958,98.705978 
	C31.255751,101.018654 33.308144,102.945168 36.245255,105.702133 
	C37.576736,92.903847 39.700157,81.095215 47.444901,71.036926 
	C41.126415,86.709846 39.993797,103.270599 41.167042,120.165955 
	C40.744404,120.311829 40.321766,120.457710 39.899128,120.603592 
	C37.162254,116.466949 34.425385,112.330315 31.545109,107.976936 
	C31.545109,116.110481 31.545109,124.043961 31.545109,133.436234 
	C30.055880,128.493744 28.949327,124.821304 27.920273,120.300056 
	C27.978931,117.296669 27.960094,115.142082 27.936157,112.606201 
	C27.632843,110.485931 27.334629,108.746956 27.036413,107.007980 
z"/>
<path fill="#87DF32" opacity="1.000000" stroke="none" 
	d="
M76.785797,132.282516 
	C77.216637,136.324280 78.521454,140.943329 77.455879,144.928558 
	C75.285728,153.044907 78.628799,160.613327 86.698212,162.955292 
	C87.322739,163.136536 87.944359,163.327789 88.799026,163.788269 
	C82.828026,166.782990 76.363312,167.426315 69.356911,166.834167 
	C68.237556,154.428040 70.857903,143.184982 76.785797,132.282516 
z"/>
<path fill="#7BCC26" opacity="1.000000" stroke="none" 
	d="
M70.009949,101.307434 
	C79.626709,103.510544 86.772484,108.797768 93.234993,116.295731 
	C88.435196,117.789055 84.243195,119.093285 79.203880,120.661133 
	C75.828506,115.419357 72.274910,110.065773 68.968315,104.563744 
	C68.539520,103.850258 69.385811,102.370468 70.009949,101.307434 
z"/>
<path fill="#60A410" opacity="1.000000" stroke="none" 
	d="
M52.261673,94.235962 
	C52.139610,93.443268 52.286152,92.893280 52.647202,92.149658 
	C59.766357,102.227409 66.671005,112.498772 73.624374,122.842621 
	C71.246170,127.632629 68.477234,133.209641 65.474426,139.067307 
	C65.658127,135.936600 65.372665,132.228836 66.656830,129.182831 
	C68.618202,124.530479 67.079315,121.273468 64.771385,117.385292 
	C60.356834,109.948112 56.574802,102.135483 52.261673,94.235962 
z"/>
<path fill="#AE9C99" opacity="1.000000" stroke="none" 
	d="
M109.915291,80.037605 
	C114.638138,85.857956 121.021225,88.592857 128.376602,90.226707 
	C127.722839,90.981354 126.881058,91.379547 126.039276,91.777740 
	C125.605042,91.796539 125.170799,91.815338 124.281876,91.431885 
	C118.592438,89.655769 113.357689,88.281898 108.122948,86.908035 
	C108.122948,86.908035 108.045532,86.844200 108.058426,86.441429 
	C107.562485,84.234428 107.053635,82.430191 106.460533,80.327202 
	C107.717255,80.221863 108.816277,80.129738 109.915291,80.037605 
z"/>
<path fill="#9B8887" opacity="1.000000" stroke="none" 
	d="
M109.787949,79.751068 
	C108.816277,80.129738 107.717255,80.221863 106.460533,80.327202 
	C107.053635,82.430191 107.562485,84.234428 108.094223,86.406265 
	C105.152931,83.774376 102.188744,80.774879 99.152473,77.125565 
	C101.420021,76.299194 103.759659,76.122658 106.099297,75.946121 
	C107.286400,77.118927 108.473503,78.291733 109.787949,79.751068 
z"/>
<path fill="#EBDFDD" opacity="1.000000" stroke="none" 
	d="
M97.184631,35.985363 
	C99.521599,36.601250 101.468842,37.139790 104.485809,37.974174 
	C101.274033,40.614544 98.255981,42.615147 95.266815,40.892483 
	C93.221909,39.713997 92.416542,36.384628 91.057030,34.016838 
	C91.602089,33.592289 92.147141,33.167740 92.692200,32.743195 
	C94.059769,33.798134 95.427345,34.853073 97.184631,35.985363 
z"/>
<path fill="#74BE27" opacity="1.000000" stroke="none" 
	d="
M118.269958,19.312767 
	C120.387680,21.591745 122.162758,23.705969 123.937836,25.820192 
	C123.745956,26.196449 123.554085,26.572706 123.362206,26.948963 
	C122.262314,26.593439 120.504242,26.544456 120.172112,25.831352 
	C118.367111,21.955847 115.665413,20.536579 111.540329,21.727152 
	C111.237617,21.814520 110.748543,21.256149 109.313095,20.335289 
	C112.992081,19.828224 115.459694,19.488117 118.269958,19.312767 
z"/>
<path fill="#877976" opacity="1.000000" stroke="none" 
	d="
M105.937447,75.636879 
	C103.759659,76.122658 101.420021,76.299194 98.975060,76.844650 
	C97.253914,75.461296 95.638092,73.709038 93.541275,71.435150 
	C99.078415,70.341194 102.680939,72.072166 105.937447,75.636879 
z"/>
<path fill="#877A77" opacity="1.000000" stroke="none" 
	d="
M108.244629,87.231544 
	C113.357689,88.281898 118.592438,89.655769 123.960098,91.374397 
	C118.225502,92.692612 112.948006,91.437752 108.244629,87.231544 
z"/>
<path fill="#73C220" opacity="1.000000" stroke="none" 
	d="
M107.579422,122.826988 
	C110.002945,124.760666 112.455986,127.020676 114.969948,129.608261 
	C112.556885,127.674995 110.082909,125.414162 107.579422,122.826988 
z"/>
<path fill="#877A77" opacity="1.000000" stroke="none" 
	d="
M126.270981,92.065308 
	C126.881058,91.379547 127.722839,90.981354 128.735168,90.352280 
	C130.404190,90.982338 131.902664,91.843285 133.401138,92.704239 
	C133.185303,93.179779 132.969467,93.655319 132.753632,94.130867 
	C130.669983,93.538200 128.586334,92.945541 126.270981,92.065308 
z"/>
<path fill="#7DCF2E" opacity="1.000000" stroke="none" 
	d="
M26.780172,107.005463 
	C27.334629,108.746956 27.632843,110.485931 27.719021,112.766373 
	C27.046530,113.854332 26.586073,114.400826 26.125614,114.947311 
	C25.749357,113.211197 25.373102,111.475075 25.045559,109.351509 
	C25.381563,108.497055 25.668856,108.030060 25.983822,107.278763 
	C26.182308,106.997284 26.353119,107.000107 26.780172,107.005463 
z"/>
<path fill="#73C220" opacity="1.000000" stroke="none" 
	d="
M103.876358,118.492447 
	C105.114212,119.339516 106.421227,120.507561 107.557838,122.030098 
	C106.240128,121.194199 105.092827,120.003807 103.876358,118.492447 
z"/>
<path fill="#73C220" opacity="1.000000" stroke="none" 
	d="
M26.114075,115.313019 
	C26.586073,114.400826 27.046530,113.854332 27.724121,113.147667 
	C27.960094,115.142082 27.978931,117.296669 27.966965,119.924828 
	C27.324953,118.825180 26.713743,117.251953 26.114075,115.313019 
z"/>
<path fill="#75C521" opacity="1.000000" stroke="none" 
	d="
M51.822983,90.067596 
	C51.440121,90.051392 51.057259,90.035187 50.387154,90.020912 
	C50.273991,89.136223 50.448074,88.249603 50.622154,87.362984 
	C51.076054,87.661148 51.529953,87.959312 51.963234,88.876999 
	C51.902737,89.686874 51.862858,89.877235 51.822983,90.067596 
z"/>
<path fill="#85DB31" opacity="1.000000" stroke="none" 
	d="
M55.028786,164.368454 
	C55.876312,164.573181 56.871330,165.065765 57.890350,165.933136 
	C57.001659,165.757385 56.088970,165.206848 55.028786,164.368454 
z"/>
<path fill="#73C220" opacity="1.000000" stroke="none" 
	d="
M118.143005,131.352783 
	C118.793449,131.212906 119.669868,131.324875 120.780525,131.678345 
	C120.132835,131.814789 119.250908,131.709717 118.143005,131.352783 
z"/>
<path fill="#73C220" opacity="1.000000" stroke="none" 
	d="
M102.877861,117.340179 
	C103.087067,117.268867 103.399261,117.452408 103.796532,117.903252 
	C103.581352,117.978706 103.281105,117.786865 102.877861,117.340179 
z"/>
<path fill="#73C220" opacity="1.000000" stroke="none" 
	d="
M117.205536,130.948029 
	C117.281425,130.793335 117.566162,130.777313 117.882675,130.942230 
	C117.747765,131.111008 117.581078,131.098831 117.205536,130.948029 
z"/>
<path fill="#7DCF2E" opacity="1.000000" stroke="none" 
	d="
M24.445187,105.324539 
	C24.709536,105.318146 24.840117,105.591576 24.867371,106.145294 
	C24.591391,106.170662 24.440516,105.896919 24.445187,105.324539 
z"/>
<path fill="#60A410" opacity="1.000000" stroke="none" 
	d="
M51.956150,90.116486 
	C51.862858,89.877235 51.902737,89.686874 52.002007,89.210701 
	C52.332081,89.140846 52.484871,89.421074 52.442337,89.999146 
	C52.364910,90.232712 52.089317,90.165359 51.956150,90.116486 
z"/>
<path fill="#234114" opacity="1.000000" stroke="none" 
	d="
M99.473640,56.352165 
	C99.042816,55.916840 98.846802,54.916748 98.902794,54.902431 
	C104.029968,53.591698 109.390526,52.888767 114.248688,50.934864 
	C117.665787,49.560543 120.569748,46.668594 123.321304,44.052940 
	C124.000809,43.406998 123.195534,41.199116 123.072800,39.709248 
	C122.560509,39.507793 122.048225,39.306339 121.535934,39.104889 
	C122.861656,38.770706 124.171837,38.247353 125.515938,38.136993 
	C129.960541,37.772072 131.113770,39.306404 129.445175,43.369774 
	C126.204506,51.261490 120.845032,56.256325 111.766861,56.142746 
	C107.787666,56.092960 103.806412,56.207600 99.473640,56.352165 
z"/>
<path fill="#254515" opacity="1.000000" stroke="none" 
	d="
M151.270355,40.285809 
	C147.121460,40.538315 143.142670,40.605736 139.183212,40.360519 
	C136.131104,40.171486 134.411835,38.011841 135.408966,35.314507 
	C135.830353,34.174641 139.261993,32.984684 140.568298,33.554146 
	C144.398895,35.224033 147.849396,37.765850 151.270355,40.285809 
z"/>
<path fill="#254514" opacity="1.000000" stroke="none" 
	d="
M61.100510,71.965401 
	C60.133541,70.744026 58.894768,69.260841 58.600735,67.609451 
	C57.341038,60.534508 60.492855,55.231384 67.893173,52.105476 
	C65.602890,58.848976 63.433132,65.237587 61.100510,71.965401 
z"/>
</svg>